<svg viewBox="0 0 177 24" xmlns="http://www.w3.org/2000/svg"><path d="m3.6.2h16.8c1.9 0 3.4 1.5 3.4 3.4v16.8c0 1.9-1.5 3.4-3.4 3.4h-16.8c-1.9 0-3.4-1.5-3.4-3.4v-16.8c-0-1.8 1.6-3.4 3.4-3.4z" fill="#fff"/><path d="m20.4.5c1.7 0 3.1 1.4 3.1 3.1v16.8c0 1.7-1.4 3.1-3.1 3.1h-16.8c-1.7 0-3.1-1.4-3.1-3.1v-16.8c0-1.7 1.4-3.1 3.1-3.1zm0-.5h-16.8c-2 0-3.6 1.6-3.6 3.6v16.8c0 2 1.6 3.6 3.6 3.6h16.8c2 0 3.6-1.6 3.6-3.6v-16.8c0-2-1.6-3.6-3.6-3.6z"/><path d="m15.9 10.4c.9-1 1.9-1.9 2.9-2.9.2-.3-.2-.6-.5-.4l-2.8 2.8c-.4.3-.9.4-1.3 0-.5-.4-.5-1-.1-1.4l2.8-2.8c.2-.3-.2-.7-.5-.4-.9.9-1.9 1.8-2.8 2.8-.4.5-.6 1.1-.4 1.7.4 1.1 1.8 1.4 2.6.7z"/><path d="m7.6 5.3c-.3-.3-.7.1-.5.4l2.8 2.8c.4.4.3 1.1-.1 1.4s-.9.3-1.3 0l-2.8-2.8c-.3-.2-.6.1-.5.4.9 1 1.9 1.9 2.9 2.9.9.8 2.2.4 2.6-.7.2-.6 0-1.2-.4-1.7-.9-.9-1.9-1.8-2.8-2.8z"/><path d="m16.2 12s0 0 0 0l3.5-3.5c.9-1.1 0-2.8-1.4-2.7h-.1v-.1c0-.6-.3-1.1-.7-1.4-.6-.4-1.4-.4-2 .1l-3.5 3.5-3.5-3.5c-.6-.5-1.4-.5-2-.1-.5.3-.8.9-.7 1.4v.1s0 0-.1 0c-1.4 0-2.3 1.6-1.4 2.7l3.5 3.5s0 0 0 0l-3.5 3.5c-.9 1.1 0 2.8 1.4 2.7h.1v.1c0 .6.3 1.1.7 1.4.6.4 1.4.4 2-.1l3.5-3.5 3.5 3.5c.6.5 1.4.5 2 .1.5-.3.8-.9.7-1.4v-.1h.1c1.4 0 2.3-1.6 1.4-2.7zm1.6 5.3-2.8-2.8c-.3-.2-.7 0-.5.4l2.9 2.9c.8.9-.4 2.1-1.3 1.4l-3.8-3.8s-.1 0-.2 0c0 0-.1 0-.2 0l-3.8 3.8c-1 .7-2.1-.5-1.3-1.4l2.9-2.9c.2-.3-.2-.7-.5-.4l-2.8 2.8c-.9.8-2.2-.4-1.5-1.3l3.1-3.1c.1 0 .2-.2.3-.3.2-.3.2-.4.2-.6s0-.4-.2-.6c0-.2-.2-.3-.3-.4l-3.1-3.1c-.7-1 .6-2.1 1.5-1.3l2.8 2.8c.3.2.7 0 .5-.4l-2.9-2.9c-.8-.9.4-2.1 1.3-1.4l3.8 3.8h.2.2l3.8-3.8c1-.7 2.1.5 1.3 1.4l-2.9 2.9c-.2.3.2.7.5.4l2.8-2.8c.9-.8 2.2.4 1.5 1.3l-3.1 3.1c-.1 0-.2.2-.3.3-.2.3-.2.4-.2.6s0 .4.2.6c0 .2.2.3.3.4l3.1 3.1c.7 1-.6 2.1-1.5 1.3z"/><path d="m15.9 13.6c-.9-.8-2.2-.4-2.6.7-.2.6 0 1.2.4 1.7.9.9 1.9 1.8 2.8 2.8.3.3.7-.1.5-.4l-2.8-2.8c-.4-.4-.3-1.1.1-1.4s.9-.3 1.3 0l2.8 2.8c.3.2.6-.1.5-.4-.9-1-1.9-1.9-2.9-2.9z"/><path d="m8.1 13.6c-.9 1-1.9 1.9-2.9 2.9-.2.3.2.6.5.4l2.8-2.8c.4-.3.9-.4 1.3 0 .5.4.5 1 .1 1.4l-2.8 2.8c-.2.3.2.7.5.4.9-.9 1.9-1.8 2.8-2.8.4-.5.6-1.1.4-1.7-.4-1.1-1.8-1.4-2.6-.7z"/><g fill="#fff" stroke="#fff" stroke-miterlimit="10"><path d="m45.3 13c-.1-2.3-.3-5-.2-7.1-.6 1.9-1.2 4-2.1 6.2l-2.9 7.9h-1.6l-2.6-7.8c-.8-2.3-1.4-4.4-1.9-6.4 0 2-.2 4.8-.3 7.2l-.4 7h-2l1.1-16.3h2.7l2.8 7.9c.7 2 1.2 3.8 1.6 5.5.4-1.6 1-3.4 1.7-5.5l2.9-7.9h2.7l1 16.3h-2.1l-.4-7.2z"/><path d="m62.5 19.6c-.8.4-2.3.8-4.3.8-4.6 0-8.1-2.9-8.1-8.3s3.5-8.6 8.5-8.6 3.3.4 3.9.7l-.5 1.7c-.8-.4-1.9-.7-3.3-.7-3.8 0-6.4 2.4-6.4 6.7s2.3 6.6 6.3 6.6 2.6-.3 3.4-.7l.4 1.7z"/><path d="m65.1 4c1-.2 2.4-.3 4-.3s3.6.5 4.6 1.4c.9.8 1.4 2 1.4 3.4s-.4 2.6-1.3 3.5c-1.1 1.2-2.9 1.8-5 1.8s-1.2 0-1.7-.1v6.5h-2.1v-16.2zm2.1 7.9c.5.1 1 .2 1.7.2 2.5 0 4.1-1.2 4.1-3.5s-1.5-3.2-3.9-3.2-1.6 0-2 .2v6.4z"/><path d="m91.5 13c-.1-2.3-.3-5-.2-7.1-.6 1.9-1.2 4-2.1 6.2l-2.9 7.9h-1.6l-2.6-7.8c-.8-2.3-1.4-4.4-1.9-6.4 0 2-.2 4.8-.3 7.2l-.4 7h-2l1.1-16.3h2.7l2.8 7.9c.7 2 1.2 3.8 1.6 5.5.4-1.6 1-3.4 1.7-5.5l2.9-7.9h2.7l1 16.3h-2.1l-.4-7.2z"/><path d="m103.8 20.2-.2-1.5c-.7.9-1.9 1.7-3.6 1.7-2.4 0-3.6-1.7-3.6-3.4 0-2.8 2.5-4.4 7.1-4.4v-.2c0-1-.3-2.7-2.7-2.7s-2.2.3-3.1.9l-.5-1.4c1-.6 2.4-1 3.9-1 3.6 0 4.5 2.4 4.5 4.8v4.4c0 1 0 2 .2 2.8h-1.9zm-.4-6c-2.3 0-5 .4-5 2.6s.9 2 2 2 2.5-1 2.8-2c0-.2.1-.5.1-.7v-2z"/><path d="m111.4 5.1v3.4h3.1v1.6h-3.1v6.3c0 1.5.4 2.3 1.6 2.3s1 0 1.2-.1v1.6c-.3.2-1 .3-1.8.3s-1.8-.3-2.3-.9c-.6-.6-.8-1.7-.8-3.1v-6.4h-1.8v-1.6h1.8v-2.8z"/><path d="m117.9 14.7c0 2.9 1.9 4.1 4 4.1s2.4-.3 3.2-.6l.4 1.5c-.8.3-2 .7-3.9.7-3.6 0-5.8-2.4-5.8-5.9s2.1-6.3 5.5-6.3 4.8 3.4 4.8 5.5 0 .8 0 1zm6.3-1.5c0-1.4-.6-3.5-3-3.5s-3.1 2-3.3 3.5h6.2z"/></g></svg>